<?xml version="1.0" encoding="UTF-8" standalone="no"?>
<!-- Created with Inkscape (http://www.inkscape.org/) -->

<svg
   width="52.137772mm"
   height="16.278597mm"
   viewBox="0 0 52.137772 16.278597"
   version="1.1"
   id="svg5251"
   inkscape:version="1.2 (dc2aedaf03, 2022-05-15)"
   sodipodi:docname="drawing.svg"
   xmlns:inkscape="http://www.inkscape.org/namespaces/inkscape"
   xmlns:sodipodi="http://sodipodi.sourceforge.net/DTD/sodipodi-0.dtd"
   xmlns="http://www.w3.org/2000/svg"
   xmlns:svg="http://www.w3.org/2000/svg">
  <sodipodi:namedview
     id="namedview5253"
     pagecolor="#000000"
     bordercolor="#eeeeee"
     borderopacity="1"
     inkscape:showpageshadow="0"
     inkscape:pageopacity="0"
     inkscape:pagecheckerboard="0"
     inkscape:deskcolor="#505050"
     inkscape:document-units="mm"
     showgrid="false"
     inkscape:zoom="0.75544332"
     inkscape:cx="12.575397"
     inkscape:cy="221.06225"
     inkscape:window-width="1920"
     inkscape:window-height="1046"
     inkscape:window-x="-11"
     inkscape:window-y="-11"
     inkscape:window-maximized="1"
     inkscape:current-layer="layer1" />
  <defs
     id="defs5248" />
  <g
     inkscape:label="Layer 1"
     inkscape:groupmode="layer"
     id="layer1"
     transform="translate(-101.95345,-89.875883)">
    <g
       aria-label="U Card"
       id="text6152"
       style="font-size:22.5778px;font-family:Billabong;-inkscape-font-specification:Billabong;opacity:0.276667;stroke-width:0.132292;stroke-linejoin:bevel;stroke-miterlimit:0;stroke-dasharray:3.175, 0.132292">
      <path
         d="m 115.43228,103.96444 q -0.0226,0.0452 -0.0452,0.2032 -0.0226,0.15804 -0.0226,0.29351 0,0.0903 0.0226,0.24835 0.0226,0.13547 0.0226,0.18062 0,0.18063 -0.2032,0.42898 -0.18063,0.24836 -0.76765,0.24836 -0.8128,0 -1.28693,-0.36125 -0.45156,-0.33866 -0.69992,-0.83537 -0.22577,-0.49672 -0.29351,-0.99343 -0.0677,-0.51929 -0.0903,-0.83538 -0.13547,0.27094 -0.38382,0.88054 -0.22578,0.58702 -0.54187,1.19662 -0.29351,0.6096 -0.63218,1.06116 -0.33866,0.47413 -0.67733,0.47413 -0.88054,0 -1.46756,-0.36124 -0.58702,-0.36125 -0.94827,-0.92569 -0.33866,-0.56445 -0.49671,-1.24178 -0.13546,-0.69991 -0.13546,-1.35467 0,-0.11289 0.0226,-0.58702 0.0226,-0.49671 0.0452,-1.24178 0.0451,-0.767647 0.11289,-1.76107 0.0677,-1.016001 0.15804,-2.167469 0,-0.04516 0,-0.270934 0.0226,-0.225778 0.0226,-0.496711 0,-0.270934 0,-0.496712 0.0226,-0.225778 0.0226,-0.270934 0,-0.270933 -0.0226,-0.8128 -0.0226,-0.541868 -0.13547,-1.083735 -0.11289,-0.541867 -0.33866,-0.948267 -0.2032,-0.406401 -0.58703,-0.406401 -0.54186,0 -1.08373,0.654756 -0.51929,0.654757 -0.94827,1.603024 -0.4064,0.948268 -0.67733,2.009424 -0.24836,1.061157 -0.24836,1.873958 0,0.316089 0.0452,0.72249 0.0452,0.4064 0.18062,0.767645 0.13547,0.361245 0.38382,0.6096 0.24836,0.248356 0.67734,0.248356 0.29351,0 0.45155,-0.13547 0.15805,-0.158041 0.27094,-0.338664 0.13546,-0.2032 0.22577,-0.338667 0.11289,-0.158044 0.29352,-0.158044 0.22577,0 0.33866,0.248356 0.13547,0.248355 0.13547,0.451556 0,0.541863 -0.4064,0.745063 -0.4064,0.18063 -0.85796,0.18063 -1.4224,0 -2.16747,-0.83538 -0.74506,-0.835381 -0.74506,-2.144893 0,-0.361245 0.11289,-1.038579 0.0903,-0.699912 0.31608,-1.535291 0.2032,-0.835378 0.54187,-1.693335 0.31609,-0.880534 0.74507,-1.580446 0.42898,-0.722489 0.97084,-1.174045 0.56445,-0.451556 1.24178,-0.451556 0.47414,0 0.83538,0.248355 0.38383,0.248356 0.69991,0.496712 0.54187,0.406401 0.88054,0.970846 0.36124,0.564445 0.54187,1.377245 0.18062,0.812801 0.24835,1.896536 0.0677,1.083734 0.0677,2.551291 0,0.406401 -0.0451,0.948268 -0.0226,0.541867 -0.0677,1.128892 -0.0226,0.56444 -0.0677,1.17404 -0.0226,0.6096 -0.0226,1.15147 0,0.2032 0,0.63218 0.0226,0.4064 0.0903,0.83538 0.0903,0.4064 0.24835,0.72249 0.15805,0.31609 0.45156,0.31609 0.15804,0 0.29351,-0.13547 0.13547,-0.15804 0.24835,-0.36124 0.11289,-0.2032 0.18063,-0.4064 0.0903,-0.20321 0.13546,-0.31609 0.90312,-2.19005 1.12889,-4.425253 0.24836,-2.25778 0.24836,-4.628449 0,-0.293512 -0.0903,-0.564445 -0.0677,-0.270934 -0.0677,-0.541867 0,-0.112889 0.13546,-0.203201 0.13547,-0.112889 0.31609,-0.180622 0.2032,-0.09031 0.38382,-0.135467 0.18063,-0.04516 0.27094,-0.04516 0.13546,0 0.36124,0.09031 0.24836,0.06773 0.49671,0.2032 0.27094,0.112889 0.49672,0.248356 0.24835,0.135467 0.36124,0.248356 -0.2032,0.112889 -0.31609,0.316089 -0.0903,0.2032 -0.18062,0.970845 -0.0903,0.745068 -0.18062,1.873958 -0.0677,1.12889 -0.11289,2.551291 -0.0452,1.399819 -0.0452,2.889959 0,0.18062 0.0226,0.6096 0.0452,0.42897 0.11289,0.85795 0.0903,0.42898 0.24835,0.76765 0.15805,0.31609 0.38383,0.31609 0.0903,0 0.18062,-0.13547 0.0903,-0.15804 0.18062,-0.31609 0.11289,-0.18062 0.22578,-0.31609 0.13547,-0.13546 0.27093,-0.13546 z"
         id="path6215" />
      <path
         d="m 129.99497,101.77439 q -0.15805,0.6096 -0.51929,1.26436 -0.33867,0.65475 -0.85796,1.24177 -0.76764,0.88054 -1.69333,1.17405 -0.92569,0.29351 -1.67076,0.29351 -2.2352,0 -3.31894,-1.71591 -1.06115,-1.71591 -1.06115,-4.94454 0,-1.693335 0.29351,-3.160892 0.31609,-1.467557 0.83538,-2.551291 0.51929,-1.106313 1.2192,-1.738491 0.72249,-0.632178 1.53529,-0.632178 h 0.47413 q 0.4064,0 0.67734,0.112889 0.29351,0.112889 0.54186,0.293511 0.27094,0.158045 0.54187,0.361245 0.27093,0.180622 0.67734,0.361245 0.67733,0.293511 0.90311,1.083734 0.22578,0.767645 0.22578,1.648179 0,0.31609 -0.0226,0.654757 0,0.338667 -0.11289,0.632178 -0.11289,0.270934 -0.36125,0.474134 -0.24835,0.2032 -0.72249,0.248356 -0.65475,0 -0.90311,-0.451556 -0.24835,-0.451556 -0.24835,-0.970846 0,-0.293511 0.0452,-0.699912 0.0452,-0.428978 0.0452,-0.857956 0,-0.564445 -0.18063,-0.993423 -0.15804,-0.428978 -0.67733,-0.428978 -0.83538,0 -1.37724,0.6096 -0.51929,0.587023 -0.83538,1.512713 -0.29352,0.92569 -0.42898,2.05458 -0.11289,1.12889 -0.11289,2.190046 0,1.083735 0.0451,2.009426 0.0677,0.90311 0.29352,1.6256 0.22577,0.72249 0.65475,1.26436 0.42898,0.51929 1.19663,0.85795 0.31609,0.13547 0.69991,0.13547 0.56444,0 1.06115,-0.24836 0.51929,-0.27093 0.90312,-0.69991 0.38382,-0.42898 0.6096,-0.97084 0.22577,-0.56445 0.22577,-1.15147 0,-0.58702 0.20321,-1.03858 0.22577,-0.45156 0.72248,-0.45156 0.36125,0 0.47414,0.22578 0.11289,0.22578 0.11289,0.51929 0,0.51929 -0.11289,0.85796 z"
         id="path6217" />
      <path
         d="m 139.45508,102.60977 q -0.0452,0.31609 -0.22578,0.74506 -0.18062,0.42898 -0.47413,0.83538 -0.27093,0.38383 -0.65476,0.65476 -0.36124,0.27093 -0.8128,0.27093 -0.67733,0 -1.19662,-0.51929 -0.49671,-0.51929 -0.6096,-1.46755 -0.13547,0.36124 -0.31609,0.83538 -0.18062,0.47413 -0.45156,0.88053 -0.27093,0.4064 -0.63218,0.67733 -0.33866,0.29351 -0.8128,0.29351 -0.13546,0 -0.2032,-0.0226 -0.0677,-0.0226 -0.15804,-0.0677 -0.0677,-0.0226 -0.18062,-0.0451 -0.0903,-0.0226 -0.27094,-0.0226 -0.54186,0 -0.92569,-0.36124 -0.36124,-0.33867 -0.58702,-0.88054 -0.22578,-0.54187 -0.33867,-1.17404 -0.0903,-0.65476 -0.0903,-1.21921 0,-1.35466 0.13547,-2.573865 0.15804,-1.219201 0.49671,-2.144891 0.33867,-0.948268 0.88053,-1.490135 0.54187,-0.564445 1.30952,-0.564445 0.45155,0 0.67733,0.09031 0.24836,0.06773 0.45156,0.180623 0.2032,0.09031 0.42898,0.2032 0.24835,0.112889 0.67733,0.180622 0.47413,0.270934 0.65476,0.654756 0.2032,0.361245 0.24835,0.790224 0.0677,0.428978 0.0452,0.903112 -0.0226,0.451556 0.0452,0.903112 0,0.02258 0.0903,0.06773 0.11289,0.04516 0.24836,0.112889 0.13547,0.04516 0.22578,0.158045 0.11289,0.09031 0.11289,0.248355 v 0.09031 q -0.22578,0.587018 -0.27094,1.038578 -0.0452,0.45155 -0.0452,1.08373 0,0.31609 0.0226,0.69991 0.0452,0.36125 0.11289,0.69991 0.0903,0.31609 0.24836,0.54187 0.15804,0.2032 0.4064,0.2032 0.27093,0 0.47413,-0.27093 0.22578,-0.27094 0.36125,-0.6096 0.15804,-0.36125 0.24835,-0.72249 0.11289,-0.36125 0.13547,-0.54187 0.0452,-0.27093 0.22578,-0.27093 0.11289,0 0.2032,0.13546 0.11289,0.11289 0.11289,0.42898 0,0.0903 0,0.18062 0,0.0677 -0.0226,0.18063 z m -4.17689,-3.657607 q 0,-0.248355 -0.0452,-0.587022 -0.0452,-0.338667 -0.15804,-0.632179 -0.11289,-0.293511 -0.33867,-0.496711 -0.22578,-0.203201 -0.6096,-0.203201 -0.63218,0 -1.03858,0.587023 -0.38382,0.564445 -0.6096,1.354668 -0.22578,0.767645 -0.29351,1.603029 -0.0677,0.8128 -0.0677,1.28693 0,0.36124 0.0226,0.88053 0.0452,0.49672 0.13547,0.94827 0.0903,0.45156 0.24836,0.76765 0.18062,0.31609 0.45155,0.31609 0.65476,0 0.99343,-0.49672 0.36124,-0.51929 0.54186,-1.26435 0.18062,-0.76765 0.24836,-1.6256 0.0903,-0.88054 0.15804,-1.603028 0.0452,-0.383823 0.2032,-0.474134 0.15805,-0.112889 0.15805,-0.158044 z"
         id="path6219" />
      <path
         d="m 145.43823,101.88728 q 0,0.15804 -0.11289,0.76764 -0.0903,0.58703 -0.36124,1.26436 -0.24836,0.65476 -0.69991,1.17405 -0.42898,0.51928 -1.10631,0.51928 -0.72249,0 -1.15147,-0.51928 -0.42898,-0.49672 -0.65476,-1.19663 -0.22578,-0.72249 -0.29351,-1.49013 -0.0677,-0.79023 -0.0677,-1.30952 0,-0.58702 0.0677,-1.174041 0.0677,-0.609601 0.0903,-1.196624 0,-0.180622 -0.18062,-0.225778 -0.18062,-0.04516 -0.33867,-0.04516 -0.27093,0 -0.33866,0.06773 -0.0677,0.06773 -0.0903,0.158045 l -0.0903,0.722489 q -0.0903,0.722489 -0.2032,1.399819 -0.0903,0.65476 -0.22578,1.17405 -0.11288,0.49671 -0.29351,0.8128 -0.15804,0.29351 -0.38382,0.29351 h -0.0226 q -0.0903,0 -0.18062,-0.0452 -0.0677,-0.0452 -0.0677,-0.22578 0,-0.0903 0.0452,-0.27094 0.18062,-0.79022 0.22578,-1.30951 0.0452,-0.51929 0.0677,-0.92569 v -0.15804 q 0,-0.11289 0,-0.270935 0.0226,-0.158044 0.0226,-0.383822 V 98.90695 q 0,-0.248356 0,-0.51929 0,-0.270933 -0.0452,-0.587022 l -0.0677,-1.332091 q 0,-0.135467 0.11289,-0.248356 0.11289,-0.112889 0.29351,-0.2032 0.18063,-0.09031 0.38383,-0.135467 0.2032,-0.04515 0.36124,-0.04515 0.38382,0 0.38382,0.496711 v 0.112889 l -0.0226,0.496712 v 0.135467 q 0,0.158045 0.0677,0.2032 0.0677,0.02258 0.27093,0.06773 h 0.0677 q 0.18062,0.02258 0.58702,0.04515 0.4064,0.02258 0.8128,0.09031 0.4064,0.06773 0.69991,0.225778 0.31609,0.135467 0.31609,0.406401 0,0.09031 -0.0452,0.270933 -0.0452,0.158045 -0.11288,0.338667 -0.0677,0.158045 -0.11289,0.293512 -0.0452,0.135467 -0.0452,0.180622 -0.4064,1.557874 -0.4064,3.251204 0,0.13547 0.0226,0.49671 0.0226,0.36125 0.0903,0.74507 0.0677,0.38382 0.2032,0.67734 0.13547,0.29351 0.33867,0.29351 0.33866,0 0.6096,-0.4064 0.27093,-0.42898 0.47413,-0.97085 0.2032,-0.56444 0.31609,-1.12889 0.13547,-0.56444 0.18062,-0.83538 0.0452,-0.24835 0.13547,-0.29351 0.11289,-0.0677 0.2032,-0.0677 0.31609,0 0.31609,0.4064 0,0.0451 -0.0226,0.24835 0,0.18063 -0.0226,0.27094 z"
         id="path6221" />
      <path
         d="m 154.06296,101.20994 q -0.0452,0.49672 -0.2032,1.12889 -0.13547,0.63218 -0.42898,1.19663 -0.27093,0.56444 -0.74507,0.94826 -0.45155,0.38383 -1.10631,0.38383 -0.97084,0 -1.4224,-0.45156 -0.42898,-0.45155 -0.72249,-1.39982 l -0.0226,0.11289 q -0.0903,0.36124 -0.22578,0.79022 -0.11289,0.42898 -0.33866,0.79022 -0.2032,0.33867 -0.51929,0.56445 -0.31609,0.24835 -0.8128,0.24835 -0.33867,0 -0.67734,-0.13546 -0.31609,-0.11289 -0.67733,-0.29351 -0.51929,-0.27094 -0.8128,-0.72249 -0.29351,-0.45156 -0.42898,-0.92569 -0.13547,-0.47414 -0.15805,-0.90312 -0.0226,-0.45155 -0.0226,-0.69991 v -0.38382 q 0,-0.13547 0.0677,-0.58702 0.0677,-0.45156 0.2032,-1.038582 0.15805,-0.609601 0.36125,-1.264357 0.22577,-0.654756 0.51928,-1.196624 0.31609,-0.541867 0.69992,-0.903112 0.4064,-0.361245 0.90311,-0.361245 0.54187,0 1.03858,0.180623 0.51929,0.180622 0.74506,0.270933 0.0226,-0.4064 0.0226,-0.993423 0.0226,-0.587023 0.0226,-1.151468 0.0226,-0.587022 0.0226,-1.083734 0,-0.496712 0,-0.745067 0,-0.587023 -0.0226,-0.993424 -0.0226,-0.428978 -0.0903,-0.722489 -0.0452,-0.293512 -0.11289,-0.474134 -0.0677,-0.180623 -0.15804,-0.316089 0.38382,-0.112889 0.74506,-0.158045 0.38383,-0.04516 0.69991,-0.04516 0.51929,0 0.79023,0.09031 0.29351,0.06773 0.29351,0.383822 0,0.135467 -0.0677,0.790223 -0.0677,0.654757 -0.13547,1.715913 -0.0677,1.038579 -0.13547,2.415825 -0.0677,1.377246 -0.0677,2.935114 v 2.28035 q 0,0.63218 0.0226,1.21921 0.0226,0.56444 0.0903,1.016 0.0903,0.42897 0.24835,0.69991 0.15805,0.24835 0.45156,0.24835 0.65476,0 0.97085,-0.74506 0.33866,-0.76765 0.54186,-2.39325 0.0226,-0.18062 0.0903,-0.31609 0.0677,-0.13547 0.29352,-0.13547 0.2032,0 0.24835,0.27094 0.0677,0.24835 0.0452,0.49671 z m -4.76392,-3.273778 q 0,-0.06773 -0.11289,-0.158044 -0.0903,-0.09031 -0.24835,-0.180623 -0.13547,-0.09031 -0.29351,-0.158044 -0.15805,-0.06773 -0.27094,-0.06773 -0.45155,0 -0.8128,0.564445 -0.33866,0.541868 -0.58702,1.354668 -0.22578,0.812796 -0.33867,1.738486 -0.11289,0.92569 -0.11289,1.64818 0,0.27093 0.0226,0.63218 0.0226,0.36124 0.11289,0.67733 0.0903,0.31609 0.24836,0.54187 0.15804,0.22578 0.42897,0.22578 0.29352,0 0.54187,-0.33867 0.24836,-0.33867 0.45156,-0.88053 0.2032,-0.54187 0.36124,-1.2192 0.18062,-0.67734 0.29351,-1.33209 0.13547,-0.67734 0.2032,-1.264357 0.0677,-0.609601 0.0903,-0.970846 z"
         id="path6223" />
    </g>
  </g>
</svg>
